<svg width="318" height="240" viewBox="0 0 318 240" fill="none" xmlns="http://www.w3.org/2000/svg">
<g clip-path="url(#clip0_57_185)">
<path d="M31.5674 212.752C18.7588 212.752 14.8022 200.95 14.8022 189.748C14.8022 177.689 19.3644 167.057 31.1839 167.057C40.1923 167.057 44.4114 172.991 45.1331 178.057H59.4658C58.5422 166.936 49.2916 155.82 31.6431 155.82C10.2551 155.82 0.00512695 172.098 0.00512695 190.268C0.00512695 208.438 9.94215 223.99 30.9568 223.99C47.5555 223.99 57.5329 214.367 59.5415 201.823H45.123C44.4114 205.789 40.9241 212.752 31.5674 212.752Z" fill="#12295B"/>
<path d="M80.6672 156.86H66.8896V223.051H80.6672V156.86Z" fill="#12295B"/>
<path d="M135.207 173.894H121.43V199.78C121.43 210.33 118.831 212.979 112.547 212.979C106.264 212.979 104.881 208.438 104.881 202.948V173.894H91.1189V205.708C91.1189 218.045 97.5939 224.206 107.733 224.206C114.087 224.206 118.598 222.945 122.131 217.395C123.14 221.431 123.645 223.051 123.645 223.051H135.308C135.222 218.601 135.212 213.388 135.212 208.595V173.889L135.207 173.894Z" fill="#12295B"/>
<path d="M173.658 172.951C165.594 172.951 161.476 176.185 159.422 179.384V156.86H145.644V206.783C145.644 212.177 145.644 217.657 145.548 223.051H157.534C157.534 223.051 157.963 221.431 158.972 217.395C161.385 221.013 165.533 224.207 172.326 224.207C186.634 224.207 193.961 212.051 193.961 197.792C193.961 183.532 186.76 172.946 173.658 172.946V172.951ZM169.303 213.262C161.279 213.262 158.796 206.829 158.796 198.448C158.796 188.311 161.587 183.986 169.454 183.986C176.898 183.986 179.982 189.769 179.982 198.064C179.982 207.47 176.303 213.262 169.303 213.262Z" fill="#12295B"/>
<path d="M245.645 196.268C245.645 208.297 240.497 212.753 232.297 212.753C225.15 212.753 218.61 208.983 218.61 196.268V156.86H204.257V195.829C204.257 217.965 217.151 223.99 232.105 223.99C247.058 223.99 259.988 218.217 259.988 195.556V156.86H245.645V196.268Z" fill="#12295B"/>
<path d="M298.176 172.951C290.283 172.951 285.64 176.024 283.622 179.556C282.733 176.912 281.941 174.651 281.669 173.884H269.925C270.016 177.78 270.016 181.665 270.016 185.596V240.005H283.707V218.651C285.605 221.562 289.264 224.212 296.289 224.212C307.876 224.212 318 214.993 318 197.438C318 182.003 309.355 172.956 298.182 172.956L298.176 172.951ZM293.175 213.262C285.726 213.262 283.167 207.737 283.167 198.241C283.167 188.215 285.943 183.996 293.766 183.996C300.321 183.996 304.01 188.845 304.01 197.968C304.01 208.1 300.468 213.262 293.175 213.262Z" fill="#12295B"/>
<path d="M158.998 0L1.67554 139.396H316.319L158.998 0ZM158.998 17.3678L272.711 118.123C257.621 109.58 241.618 103.026 225.175 98.3433C203.601 92.2631 181.294 89.281 159.003 89.2759V61.7307H173.795V48.1372L151.367 44.368V89.397C131.624 90.0076 111.942 92.9543 92.8297 98.3433C76.3874 103.021 60.3842 109.575 45.2894 118.123L158.998 17.3678ZM263.874 126.398H54.1212C66.4201 118.305 81.4291 111.932 95.56 107.259C115.898 100.488 137.468 97.208 158.998 97.1878C180.527 97.208 202.097 100.488 222.435 107.259C236.566 111.932 251.575 118.3 263.874 126.393V126.398Z" fill="#12295B"/>
<path d="M222.44 107.264C202.102 100.493 180.532 97.2131 159.002 97.1929C137.473 97.2131 115.903 100.493 95.565 107.264C81.4341 111.937 66.4251 118.31 54.1262 126.403H263.879C251.58 118.31 236.571 111.937 222.44 107.269V107.264Z" fill="#00D19A"/>
<path d="M151.362 89.407V44.378L173.789 48.1473V61.7407H158.998V89.2859C181.294 89.291 203.596 92.2731 225.17 98.3533C241.613 103.031 257.616 109.585 272.706 118.133L158.998 17.3677L45.2844 118.128C60.3792 109.585 76.3824 103.031 92.8247 98.3483C111.937 92.9593 131.619 90.0125 151.362 89.402V89.407Z" fill="#B1C8E5"/>
</g>
<defs>
<clipPath id="clip0_57_185">
<rect width="318" height="240" fill="white"/>
</clipPath>
</defs>
</svg>
