<svg width="36" height="36" viewBox="0 0 36 36" fill="none" xmlns="http://www.w3.org/2000/svg">
<path d="M28.7848 9.37705C28.3497 9.96997 27.6575 10.7408 27.1829 11.2942C25.4031 13.409 23.5244 15.4448 21.5073 17.3422C18.8771 19.8325 16.0887 22.1055 12.9643 23.9239C11.2042 24.9318 9.38491 25.8016 7.36776 26.1771C6.41863 26.3551 5.48919 26.3946 4.53996 26.2365C2.97774 25.9599 1.87033 25.11 1.11897 23.7265C0.683842 22.9162 0.446585 22.0466 0.30821 21.1572C0.110445 19.9912 -0.0279311 18.8053 0.0116621 17.6194C0.150238 13.5085 1.45551 9.81258 4.08565 6.61072C6.93334 3.13213 10.6314 0.997559 15.1006 0.246354C18.5415 -0.326887 21.8637 0.107836 25.087 1.47153C27.2425 2.38062 29.1408 3.66522 30.7821 5.3451C33.4715 8.09225 35.1523 11.3533 35.7653 15.1678C36.3781 18.9822 35.7848 22.6386 34.0643 26.0974C33.3128 27.6192 32.3438 29.0027 31.177 30.2479C28.4874 33.094 25.2443 34.9322 21.3881 35.6635C16.8201 36.5333 12.5486 35.7033 8.57385 33.3317C7.40715 32.64 6.33934 31.7902 5.37042 30.8217C4.876 30.3475 4.57946 29.7546 4.48057 29.0825C4.42128 28.6477 4.52017 28.2327 4.65854 27.8374C4.71793 27.6595 4.85631 27.5607 5.05407 27.5607C5.09366 27.5607 5.15295 27.5607 5.19245 27.5607C7.13051 27.6594 8.94978 27.1455 10.7098 26.3944C11.046 26.2561 11.3229 26.2363 11.6392 26.4142C12.1929 26.6909 12.7466 26.9478 13.3201 27.2047C13.3992 27.2443 13.4585 27.2837 13.5376 27.3035C13.7749 27.3826 13.9727 27.3233 14.0716 27.1256C14.1705 26.9478 14.1111 26.7106 13.9134 26.592C13.7354 26.4734 13.5179 26.3746 13.3201 26.2758C13.0433 26.1374 12.7466 25.9991 12.4698 25.8608C12.3512 25.8015 12.3314 25.7026 12.4501 25.6039C12.5094 25.5643 12.5489 25.5445 12.6082 25.505C13.241 25.1493 13.8738 24.7934 14.4869 24.4179C14.7242 24.2796 14.9219 24.2598 15.1395 24.3784C15.4163 24.5167 15.713 24.6353 15.9898 24.7737C17.2356 25.4258 17.8486 26.7303 17.552 28.0742C17.2751 29.3589 16.1281 30.3274 14.7636 30.3867C14.1902 30.4263 13.6365 30.2286 13.1222 29.9914C11.9753 29.4578 10.8284 28.9243 9.68145 28.3709C8.92999 28.0152 8.17852 28.0547 7.44685 28.45C7.36776 28.4895 7.30837 28.5291 7.24908 28.5686C6.65579 29.0034 6.61629 29.5964 7.1699 30.0904C8.07954 30.9007 9.04857 31.5924 10.0966 32.1656C11.9555 33.1933 13.9527 33.8257 16.0686 34.0627C18.8965 34.3987 21.6254 33.9835 24.2358 32.8767C26.1935 32.0466 27.9338 30.8805 29.417 29.3586C31.9483 26.7694 33.4711 23.6862 33.926 20.1088C34.4601 15.82 33.4516 11.9067 30.9205 8.42831C28.7453 5.44396 25.8186 3.46768 22.2591 2.45972C20.4201 1.92623 18.5612 1.76814 16.6627 1.90655C13.0242 2.20306 9.84033 3.56685 7.11121 5.99793C4.3625 8.48833 2.68149 11.6704 2.0486 15.4058C1.67277 17.6194 1.79135 19.8132 2.34505 21.9872C2.68119 23.3115 3.63032 24.0625 4.97509 24.2008C6.14178 24.3194 7.26898 24.1019 8.37638 23.7659C10.2353 23.1926 11.9558 22.3625 13.6367 21.394C16.8798 19.5361 19.8858 17.3224 22.7334 14.8914C24.6318 13.2707 26.471 11.5709 28.2113 9.7921C28.3102 9.69323 28.6067 9.39683 28.7254 9.31773C29.0022 9.041 28.9628 9.13987 28.7848 9.37705Z" fill="#1E4470"/>
<path d="M12.3099 14.7723C12.31 13.0133 12.3298 11.2542 12.2903 9.51495C12.2706 8.34879 13.2001 7.14319 14.4262 6.906C15.8698 6.62927 17.3531 7.71623 17.4518 9.17879C17.4518 9.29744 17.4518 9.43575 17.4518 9.5544C17.4517 12.0249 17.4517 14.4757 17.4516 16.9463C17.4516 17.3416 17.333 17.5985 16.9968 17.8159C16.542 18.0927 16.1069 18.4089 15.6521 18.7054C15.3949 18.8635 15.3158 18.824 15.3158 18.5275C15.2961 17.9938 15.3158 17.4602 15.3159 16.9069C15.3159 15.5233 15.3159 14.1595 15.316 12.776C15.316 12.5982 15.316 12.4203 15.2764 12.2621C15.2369 12.0645 15.0787 11.9262 14.8612 11.9262C14.6436 11.9262 14.5052 12.0645 14.4459 12.2622C14.4261 12.4598 14.4459 12.6377 14.4261 12.8353C14.426 14.871 14.4062 16.9069 14.4259 18.9426C14.4259 19.3576 14.327 19.6343 13.9315 19.8122C13.4964 20.0296 13.0811 20.3063 12.6461 20.5238C12.3494 20.6819 12.3098 20.6424 12.29 20.3063C12.29 20.168 12.29 20.0297 12.2901 19.8715C12.3099 18.1915 12.3099 16.472 12.3099 14.7723Z" fill="#689D0D"/>
<path d="M27.4186 16.6497C28.17 17.0055 28.9214 17.3414 29.6531 17.6971C30.286 17.9935 30.7605 18.4284 30.978 19.1004C31.2746 19.97 31.0966 20.7408 30.4836 21.3733C29.8507 22.0453 29.0598 22.2429 28.1896 21.9861C27.6952 21.8477 27.2404 21.571 26.7658 21.3536C25.2234 20.6421 23.7007 19.9307 22.178 19.1995C22.0791 19.1599 21.9802 19.1006 21.8814 19.0611C21.6639 18.9425 21.6639 18.8832 21.8221 18.7053C22.1583 18.3694 22.5142 18.0531 22.8306 17.7171C23.0283 17.5195 23.2064 17.4997 23.4635 17.6182C24.2346 17.9938 25.0257 18.3693 25.8167 18.7448C25.9946 18.8238 26.1924 18.9226 26.3902 18.9622C26.6077 19.0017 26.7659 18.9424 26.8648 18.725C26.9439 18.5273 26.8846 18.3693 26.7264 18.2704C26.6077 18.1716 26.4692 18.0925 26.3111 18.0332C25.5794 17.6972 24.8477 17.3613 24.1161 17.0056C23.7996 16.8475 23.7799 16.7881 24.037 16.5312C24.9466 15.622 25.7971 14.6733 26.6474 13.7246C27.7548 12.4795 28.8227 11.1948 29.8708 9.89029C29.8906 9.87051 29.9104 9.83097 29.9302 9.81119C30.2071 9.47524 30.2862 9.45546 30.5234 9.81119C31.3144 10.997 31.4529 12.2422 30.8793 13.5466C30.5629 14.2779 30.0487 14.8511 29.3763 15.2662C28.783 15.6417 28.2095 16.0173 27.6163 16.3928C27.5569 16.4323 27.4581 16.4719 27.4186 16.6497Z" fill="#1E4470"/>
<path d="M21.5847 14.2184C21.4858 14.0405 21.5254 13.8626 21.5254 13.6848C21.5254 12.6175 21.5255 11.5304 21.5255 10.4632C21.5255 10.2853 21.5453 10.1074 21.4662 9.94934C21.3872 9.77147 21.2685 9.65283 21.0707 9.65283C20.8729 9.65283 20.7543 9.77147 20.6752 9.94934C20.5961 10.1272 20.6159 10.3248 20.6159 10.5027C20.6158 11.8665 20.596 13.2104 20.6158 14.5742C20.6158 14.9497 20.5169 15.2067 20.2203 15.4241C19.8049 15.7205 19.4292 16.0368 19.0139 16.3529C18.7964 16.5111 18.7172 16.4716 18.6777 16.2146C18.6777 16.1554 18.6777 16.0961 18.6777 16.017C18.6778 13.1314 18.6779 10.2261 18.6779 7.34049C18.678 6.39185 19.2515 5.6012 20.1216 5.26524C21.5652 4.71178 23.1274 5.71974 23.1471 7.2613C23.1669 8.0124 23.1471 8.74363 23.1471 9.49474C23.1471 9.61328 23.1471 9.71205 23.1471 9.83069C23.1668 10.0679 23.2262 10.1074 23.4437 9.98878C23.9777 9.6725 24.4918 9.33655 25.006 9.00049C25.6388 8.56567 26.3112 8.28903 27.0627 8.20994C27.2802 8.19017 27.4977 8.17039 27.7152 8.22961C27.8537 8.26916 27.8932 8.34826 27.7943 8.4668C27.7548 8.52612 27.6954 8.58544 27.6362 8.64466C25.797 10.5421 23.8787 12.3604 21.8616 14.0603C21.8023 14.1196 21.743 14.2184 21.5847 14.2184Z" fill="#689D0D"/>
<path d="M5.11229 19.753C5.11229 18.8439 5.09249 17.9149 5.11238 17.0058C5.13218 15.6618 5.90345 14.5748 7.12953 14.1399C8.94881 13.5074 10.966 14.8711 11.0054 16.808C11.0251 18.1915 11.0053 19.5948 11.025 20.9783C11.025 21.3142 10.9064 21.4922 10.6098 21.6305C10.0758 21.8677 9.5419 22.1049 8.9882 22.3025C8.61247 22.4409 8.55308 22.4014 8.55308 21.9666C8.55318 21.2946 8.55318 20.6028 8.55318 19.9309C8.55318 19.4169 8.55318 18.9228 8.55318 18.409C8.55318 18.2903 8.55318 18.152 8.53348 18.0335C8.49389 17.8161 8.37521 17.6974 8.13795 17.6777C7.92039 17.658 7.76222 17.7963 7.72262 18.0532C7.70293 18.1916 7.70283 18.3299 7.70283 18.4881C7.70283 19.6937 7.70283 20.8993 7.70273 22.0852C7.70273 22.7373 7.68303 22.7571 7.03035 22.8758C6.55583 22.9746 6.06142 23.0338 5.567 23.0536C5.17147 23.0734 5.11218 22.9944 5.11218 22.5991C5.11218 21.6504 5.11229 20.7017 5.11229 19.753Z" fill="#689D0D"/>
<path d="M24.3537 26.9864C23.9384 27.0062 23.5627 26.8877 23.187 26.7296C21.3083 25.86 19.4298 24.9707 17.571 24.1011C17.1755 23.9232 16.7997 23.7453 16.4043 23.5675C16.1274 23.4291 16.1076 23.3502 16.3449 23.1722C16.8393 22.7967 17.3337 22.441 17.828 22.0655C18.006 21.927 18.1841 21.9864 18.362 22.0654C18.896 22.3223 19.4497 22.5793 19.9836 22.8361C20.4581 23.0535 20.9327 23.271 21.4073 23.4884C21.4864 23.5278 21.5457 23.5476 21.6249 23.5871C21.8423 23.6465 22.0006 23.5674 22.0994 23.3895C22.1983 23.1919 22.1588 23.014 21.9808 22.8756C21.8621 22.7966 21.7436 22.7175 21.6051 22.6583C20.8536 22.3025 20.0824 21.9468 19.331 21.5911C19.2519 21.5515 19.1926 21.5318 19.1135 21.4922C18.8564 21.3539 18.8564 21.2946 19.0739 21.0772C19.153 20.9982 19.2321 20.9388 19.331 20.8598C19.6276 20.6028 19.9441 20.3657 20.2407 20.089C20.4978 19.8518 20.7153 19.8122 21.0515 19.9703C21.882 20.3854 22.7125 20.7411 23.543 21.1364C24.2154 21.4526 24.8878 21.749 25.5601 22.0849C26.529 22.5988 27.0432 23.4288 27.0036 24.5159C26.964 25.6226 26.3509 26.3935 25.3226 26.8283C25.0063 26.9667 24.6701 27.0062 24.3537 26.9864Z" fill="#1E4470"/>
</svg>
